<?xml version="1.0" encoding="UTF-8" standalone="no"?><!DOCTYPE svg PUBLIC "-//W3C//DTD SVG 1.1//EN" "http://www.w3.org/Graphics/SVG/1.1/DTD/svg11.dtd"><svg width="100%" height="100%" viewBox="0 0 1042 1042" version="1.1" xmlns="http://www.w3.org/2000/svg" xmlns:xlink="http://www.w3.org/1999/xlink" xml:space="preserve" xmlns:serif="http://www.serif.com/" style="fill-rule:evenodd;clip-rule:evenodd;stroke-linejoin:round;stroke-miterlimit:2;"><rect id="Artboard1" x="0" y="0" width="1041.67" height="1041.67" style="fill:none;"/><g id="Artboard11" serif:id="Artboard1"><g><path d="M501.422,504.053c9.682,6.631 18.218,13.643 25.61,21.035c20.171,20.171 34.038,42.075 41.602,65.713c7.564,23.637 11.346,48.378 11.346,74.222c0,69.336 -23.007,123.23 -69.021,161.681c-46.015,38.45 -109.994,57.675 -191.937,57.675l-297.834,0l0,-704.399l297.834,-0c48.535,-0 90.138,8.194 124.806,24.583c34.668,16.388 61.142,39.868 79.422,70.44c18.28,30.571 27.42,67.603 27.42,111.096c-0,30.887 -8.51,60.355 -25.529,88.405c-6.363,10.488 -14.269,20.337 -23.719,29.549Zm-333.681,252.683l168.3,0c29.625,0 53.263,-8.509 70.912,-25.528c17.65,-17.019 26.474,-39.081 26.474,-66.185c0,-27.735 -8.824,-50.112 -26.474,-67.131c-17.649,-17.019 -41.287,-25.529 -70.912,-25.529l-168.3,0l0,184.373Zm0,-312.016l161.681,0c22.692,0 40.814,-6.461 54.367,-19.382c13.552,-12.922 20.328,-30.099 20.328,-51.53c-0,-21.432 -6.776,-38.608 -20.328,-51.53c-13.553,-12.922 -31.675,-19.383 -54.367,-19.383l-161.681,-0l0,141.825Z" style="fill-rule:nonzero;"/><path d="M547.643,243.707c19.49,-24.979 44.89,-44.961 76.197,-59.945c36.875,-17.65 79.265,-26.475 127.17,-26.475c42.233,0 81.313,7.249 117.243,21.747c35.929,14.498 66.973,34.984 93.132,61.458c26.158,26.474 45.856,58.306 59.093,95.496l-119.133,53.893c-13.237,-32.777 -33.092,-58.463 -59.567,-77.058c-26.474,-18.595 -56.73,-27.893 -90.768,-27.893c-19.54,0 -36.874,3.152 -52.002,9.455c-15.129,6.304 -26.79,15.286 -34.984,26.947c-8.194,11.661 -12.292,25.056 -12.292,40.184c0,16.389 5.358,30.729 16.074,43.02c10.716,12.292 26.789,21.905 48.221,28.838l135.206,43.493c56.731,18.28 99.121,43.809 127.171,76.586c28.05,32.778 42.074,72.804 42.074,120.079c0,40.972 -10.715,77.374 -32.147,109.206c-21.431,31.832 -50.899,56.73 -88.404,74.694c-37.505,17.965 -81.156,26.947 -130.952,26.947c-44.124,0 -85.568,-8.037 -124.334,-24.11c-26.927,-11.165 -51.268,-25.599 -73.026,-43.305c30.287,-40.569 45.839,-91.102 45.839,-151.941l-0.013,-2.73c15.544,24.807 34.698,45.259 57.456,61.351c31.202,22.061 65.713,33.092 103.533,33.092c20.17,0 37.505,-3.151 52.002,-9.455c14.498,-6.303 25.844,-14.97 34.039,-26.001c8.194,-11.031 12.291,-24.11 12.291,-39.238c0,-16.389 -5.043,-30.414 -15.128,-42.075c-10.085,-11.662 -25.844,-20.959 -47.275,-27.893l-138.044,-45.384c-52.043,-16.958 -92.153,-40.561 -120.328,-70.816c0.403,-0.641 0.799,-1.286 1.192,-1.932c20.752,-34.202 30.964,-70.182 30.964,-107.843c0,-51.073 -11.265,-94.428 -32.73,-130.327c-2.468,-4.127 -5.058,-8.15 -7.77,-12.065Z" style="fill-rule:nonzero;"/></g></g></svg>